<svg width="60" height="60" viewBox="0 0 60 60" fill="none" xmlns="http://www.w3.org/2000/svg">
<path d="M0 19.56C0 12.4994 0 8.9691 1.43924 6.30172C2.55101 4.24125 4.24125 2.55101 6.30172 1.43924C8.9691 0 12.4994 0 19.56 0H40.44C47.5006 0 51.0309 0 53.6983 1.43924C55.7588 2.55101 57.449 4.24125 58.5608 6.30172C60 8.9691 60 12.4994 60 19.56V40.44C60 47.5006 60 51.0309 58.5608 53.6983C57.449 55.7588 55.7588 57.449 53.6983 58.5608C51.0309 60 47.5006 60 40.44 60H19.56C12.4994 60 8.9691 60 6.30172 58.5608C4.24125 57.449 2.55101 55.7588 1.43924 53.6983C0 51.0309 0 47.5006 0 40.44V19.56Z" fill="white"/>
<path fill-rule="evenodd" clip-rule="evenodd" d="M29.9998 14.323C21.3416 14.323 14.3228 21.3419 14.3228 30.0001C14.3228 38.6583 21.3416 45.6772 29.9998 45.6772C38.6581 45.6772 45.6769 38.6583 45.6769 30.0001C45.6769 21.3419 38.6581 14.323 29.9998 14.323ZM32.8792 23.2761C33.3022 22.4301 32.5779 21.4643 31.6473 21.6335L28.1067 22.2773C27.6996 22.3513 27.3639 22.6387 27.2279 23.0295L24.2309 31.6459C23.922 32.5341 24.7537 33.3965 25.6525 33.1199L29.051 32.0743L27.6282 37.4809C27.3562 38.5145 28.7472 39.1263 29.3251 38.2273L35.6498 28.3889C36.1814 27.5619 35.4952 26.493 34.522 26.632L30.9458 27.1429L32.8792 23.2761Z" fill="black"/>
</svg>
