<svg width="60" height="60" viewBox="0 0 60 60" fill="none" xmlns="http://www.w3.org/2000/svg">
<path d="M0 19.56C0 12.4994 0 8.9691 1.43924 6.30172C2.55101 4.24125 4.24125 2.55101 6.30172 1.43924C8.9691 0 12.4994 0 19.56 0H40.44C47.5006 0 51.0309 0 53.6983 1.43924C55.7588 2.55101 57.449 4.24125 58.5608 6.30172C60 8.9691 60 12.4994 60 19.56V40.44C60 47.5006 60 51.0309 58.5608 53.6983C57.449 55.7588 55.7588 57.449 53.6983 58.5608C51.0309 60 47.5006 60 40.44 60H19.56C12.4994 60 8.9691 60 6.30172 58.5608C4.24125 57.449 2.55101 55.7588 1.43924 53.6983C0 51.0309 0 47.5006 0 40.44V19.56Z" fill="black"/>
<path fill-rule="evenodd" clip-rule="evenodd" d="M30.0001 14.3223C21.3419 14.3223 14.323 21.3411 14.323 29.9993C14.323 38.6576 21.3419 45.6764 30.0001 45.6764C38.6583 45.6764 45.6772 38.6576 45.6772 29.9993C45.6772 21.3411 38.6583 14.3223 30.0001 14.3223ZM32.8794 23.2753C33.3024 22.4294 32.5781 21.4636 31.6475 21.6328L28.1069 22.2765C27.6998 22.3506 27.3641 22.6379 27.2282 23.0287L24.2312 31.6451C23.9222 32.5333 24.754 33.3958 25.6528 33.1192L29.0512 32.0735L27.6284 37.4802C27.3564 38.5138 28.7474 39.1255 29.3254 38.2265L35.6501 28.3881C36.1817 27.5612 35.4955 26.4922 34.5223 26.6313L30.946 27.1421L32.8794 23.2753Z" fill="white"/>
</svg>
