<svg width="60" height="60" viewBox="0 0 60 60" fill="none" xmlns="http://www.w3.org/2000/svg">
<path d="M0 19.56C0 12.4994 0 8.9691 1.43924 6.30172C2.55101 4.24125 4.24125 2.55101 6.30172 1.43924C8.9691 0 12.4994 0 19.56 0H40.44C47.5006 0 51.0309 0 53.6983 1.43924C55.7588 2.55101 57.449 4.24125 58.5608 6.30172C60 8.9691 60 12.4994 60 19.56V40.44C60 47.5006 60 51.0309 58.5608 53.6983C57.449 55.7588 55.7588 57.449 53.6983 58.5608C51.0309 60 47.5006 60 40.44 60H19.56C12.4994 60 8.9691 60 6.30172 58.5608C4.24125 57.449 2.55101 55.7588 1.43924 53.6983C0 51.0309 0 47.5006 0 40.44V19.56Z" fill="white"/>
<path d="M40.2076 14.323C40.6454 14.3227 41.0413 14.5835 41.2137 14.9859L41.8398 16.4469C42.1896 17.2689 42.9982 18.0324 44.1843 18.4753L44.966 18.7671C45.3936 18.9268 45.6772 19.3352 45.6772 19.7917C45.6772 20.2482 45.3936 20.6567 44.966 20.8164L44.3743 21.0373C43.0664 21.5256 42.1642 22.3709 41.7707 23.2927L41.2143 24.5961C41.0423 24.9991 40.6465 25.2605 40.2084 25.2605C39.7703 25.2605 39.3745 24.9991 39.2025 24.5961L38.6461 23.2927C38.2526 22.3709 37.3504 21.5256 36.0426 21.0373L35.4508 20.8164C35.0232 20.6567 34.7397 20.2482 34.7397 19.7917C34.7397 19.3352 35.0232 18.9268 35.4508 18.7671L36.0426 18.5462C37.3504 18.0579 38.2526 17.2126 38.6461 16.2908L39.2025 14.9874C39.3744 14.5847 39.7698 14.3233 40.2076 14.323Z" fill="black"/>
<path d="M35.2774 16.4968C35.3849 16.4567 35.3965 16.3152 35.2968 16.2584C34.75 15.9473 34.129 15.7813 33.4937 15.7813H26.5091C25.6922 15.7813 24.8989 16.0557 24.2566 16.5604L16.6279 22.5543C16.3327 22.7863 16.0826 23.0552 15.8793 23.3496C15.7678 23.511 15.8678 23.7249 16.0602 23.7634L16.3604 23.8234L16.3712 23.8256L29.94 26.6822C29.9796 26.6905 30.0205 26.6905 30.0602 26.6822L36.7357 25.2768C36.9156 25.2389 37.0161 25.046 36.9439 24.8769L36.6342 24.1515C36.5213 23.8869 36.1428 23.4098 35.2774 23.0867L34.6857 22.8657C33.4027 22.3867 32.5522 21.1612 32.5522 19.7917C32.5522 18.4222 33.4027 17.1968 34.6857 16.7178L35.2774 16.4968Z" fill="black"/>
<path d="M38.6244 27.1147C38.6894 27.101 38.757 27.1103 38.8171 27.1385C39.2443 27.3386 39.7175 27.448 40.2084 27.448C41.1719 27.448 42.0673 27.0265 42.6799 26.3252C42.7236 26.2752 42.7816 26.2394 42.8466 26.2258L44.0742 25.9673L44.3535 25.9115C44.5473 25.8727 44.7224 26.0342 44.6788 26.2269C44.579 26.668 44.3952 27.0973 44.1237 27.491L33.0027 43.6164C32.596 44.206 32.0591 44.6302 31.4649 44.8889C31.2847 44.9674 31.0938 44.8274 31.0938 44.6308V28.9367C31.0938 28.7988 31.1904 28.6797 31.3254 28.6513L38.6244 27.1147Z" fill="black"/>
<path d="M15.3241 26.2275C15.2805 26.0348 15.4556 25.8733 15.6494 25.912L15.926 25.9673L28.6747 28.6513C28.8097 28.6797 28.9063 28.7988 28.9063 28.9367V44.6297C28.9063 44.8263 28.7153 44.9664 28.535 44.8877C27.942 44.6289 27.4061 44.2051 27.0001 43.6164L15.8791 27.491C15.6077 27.0975 15.4239 26.6684 15.3241 26.2275Z" fill="black"/>
</svg>
