<svg width="60" height="60" viewBox="0 0 60 60" fill="none" xmlns="http://www.w3.org/2000/svg">
<path d="M0 19.56C0 12.4994 0 8.9691 1.43924 6.30172C2.55101 4.24125 4.24125 2.55101 6.30172 1.43924C8.9691 0 12.4994 0 19.56 0H40.44C47.5006 0 51.0309 0 53.6983 1.43924C55.7588 2.55101 57.449 4.24125 58.5608 6.30172C60 8.9691 60 12.4994 60 19.56V40.44C60 47.5006 60 51.0309 58.5608 53.6983C57.449 55.7588 55.7588 57.449 53.6983 58.5608C51.0309 60 47.5006 60 40.44 60H19.56C12.4994 60 8.9691 60 6.30172 58.5608C4.24125 57.449 2.55101 55.7588 1.43924 53.6983C0 51.0309 0 47.5006 0 40.44V19.56Z" fill="black"/>
<path d="M40.2076 14.3223C40.6454 14.3219 41.0413 14.5827 41.2137 14.9852L41.8398 16.4461C42.1896 17.2681 42.9982 18.0317 44.1843 18.4745L44.966 18.7664C45.3936 18.926 45.6772 19.3345 45.6772 19.791C45.6772 20.2475 45.3936 20.656 44.966 20.8157L44.3743 21.0366C43.0664 21.5249 42.1642 22.3701 41.7707 23.292L41.2143 24.5954C41.0423 24.9983 40.6465 25.2598 40.2084 25.2598C39.7703 25.2598 39.3745 24.9983 39.2025 24.5954L38.6461 23.292C38.2526 22.3701 37.3504 21.5249 36.0426 21.0366L35.4508 20.8157C35.0232 20.656 34.7397 20.2475 34.7397 19.791C34.7397 19.3345 35.0232 18.926 35.4508 18.7664L36.0426 18.5454C37.3504 18.0571 38.2526 17.2119 38.6461 16.29L39.2025 14.9866C39.3744 14.584 39.7698 14.3226 40.2076 14.3223Z" fill="white"/>
<path d="M35.2774 16.4961C35.3849 16.456 35.3965 16.3144 35.2968 16.2577C34.75 15.9465 34.129 15.7806 33.4937 15.7806H26.5091C25.6922 15.7806 24.8989 16.0549 24.2566 16.5596L16.6279 22.5536C16.3327 22.7855 16.0826 23.0545 15.8793 23.3489C15.7678 23.5103 15.8678 23.7242 16.0602 23.7626L16.3604 23.8227L16.3712 23.8249L29.94 26.6815C29.9796 26.6898 30.0205 26.6898 30.0602 26.6815L36.7357 25.2761C36.9156 25.2382 37.0161 25.0453 36.9439 24.8762L36.6342 24.1508C36.5213 23.8861 36.1428 23.409 35.2774 23.0859L34.6857 22.865C33.4027 22.386 32.5522 21.1605 32.5522 19.791C32.5522 18.4215 33.4027 17.1961 34.6857 16.717L35.2774 16.4961Z" fill="white"/>
<path d="M38.6244 27.1139C38.6894 27.1002 38.757 27.1096 38.8171 27.1378C39.2443 27.3378 39.7175 27.4473 40.2084 27.4473C41.1719 27.4473 42.0673 27.0258 42.6799 26.3245C42.7236 26.2745 42.7816 26.2387 42.8466 26.225L44.0742 25.9666L44.3535 25.9107C44.5473 25.872 44.7224 26.0335 44.6788 26.2262C44.579 26.6673 44.3952 27.0966 44.1237 27.4902L33.0027 43.6157C32.596 44.2053 32.0591 44.6295 31.4649 44.8882C31.2847 44.9667 31.0938 44.8267 31.0938 44.6301V28.936C31.0938 28.798 31.1904 28.679 31.3254 28.6506L38.6244 27.1139Z" fill="white"/>
<path d="M15.3241 26.2268C15.2805 26.034 15.4556 25.8725 15.6494 25.9113L15.926 25.9666L28.6747 28.6506C28.8097 28.679 28.9063 28.798 28.9063 28.936V44.6289C28.9063 44.8256 28.7153 44.9656 28.535 44.887C27.942 44.6281 27.4061 44.2044 27.0001 43.6157L15.8791 27.4902C15.6077 27.0967 15.4239 26.6677 15.3241 26.2268Z" fill="white"/>
</svg>
