<svg width="60" height="60" viewBox="0 0 60 60" fill="none" xmlns="http://www.w3.org/2000/svg">
<path d="M0 19.56C0 12.4994 0 8.9691 1.43924 6.30172C2.55101 4.24125 4.24125 2.55101 6.30172 1.43924C8.9691 0 12.4994 0 19.56 0H40.44C47.5006 0 51.0309 0 53.6983 1.43924C55.7588 2.55101 57.449 4.24125 58.5608 6.30172C60 8.9691 60 12.4994 60 19.56V40.44C60 47.5006 60 51.0309 58.5608 53.6983C57.449 55.7588 55.7588 57.449 53.6983 58.5608C51.0309 60 47.5006 60 40.44 60H19.56C12.4994 60 8.9691 60 6.30172 58.5608C4.24125 57.449 2.55101 55.7588 1.43924 53.6983C0 51.0309 0 47.5006 0 40.44V19.56Z" fill="white"/>
<path d="M22.0105 28.663C22.2411 28.7188 22.4173 28.4754 22.3222 28.2582C21.8711 27.2289 21.6208 26.0915 21.6208 24.8958C21.6208 22.0518 23.0366 19.5385 25.2018 18.0223C25.396 17.8863 25.3722 17.587 25.1464 17.5147C24.5887 17.336 23.9941 17.2395 23.3771 17.2395C20.1778 17.2395 17.5842 19.833 17.5842 23.0323C17.5842 25.7609 19.4707 28.0488 22.0105 28.663Z" fill="black"/>
<path d="M17.5852 40.0556C17.7374 40.0863 17.8737 39.9579 17.8619 39.8031C17.7372 38.1735 18.2107 36.5616 18.992 35.2337L19.6349 34.141C20.5323 32.6157 21.9366 31.4937 23.5627 30.9381C23.7747 30.8656 23.8489 30.5925 23.7011 30.4241L23.659 30.3757C23.5437 30.2424 23.3779 30.1619 23.2017 30.1619H19.9667C18.0528 30.1619 16.2818 31.1747 15.3113 32.8243L15.2082 32.9996C14.437 34.3105 14.1154 35.8348 14.4611 37.1893C14.8242 38.6121 15.8984 39.7158 17.5852 40.0556Z" fill="black"/>
<path d="M37.684 28.2582C37.5888 28.4754 37.7651 28.7188 37.9957 28.663C40.5355 28.0488 42.4219 25.7609 42.4219 23.0323C42.4219 19.833 39.8284 17.2395 36.6291 17.2395C36.012 17.2395 35.4175 17.336 34.8598 17.5147C34.634 17.587 34.6102 17.8863 34.8044 18.0223C36.9696 19.5385 38.3854 22.0518 38.3854 24.8958C38.3854 26.0915 38.1351 27.2289 37.684 28.2582Z" fill="black"/>
<path d="M42.1443 39.8031C42.1325 39.9579 42.2687 40.0863 42.421 40.0556C44.1078 39.7158 45.1819 38.6121 45.5451 37.1893C45.8907 35.8348 45.5692 34.3105 44.798 32.9996L44.6948 32.8243C43.7243 31.1747 41.9534 30.1619 40.0395 30.1619H36.8045C36.6283 30.1619 36.4624 30.2424 36.3472 30.3757L36.3051 30.4241C36.1573 30.5925 36.2315 30.8656 36.4434 30.9381C38.0695 31.4937 39.4739 32.6157 40.3713 34.141L41.0142 35.2337C41.7955 36.5616 42.2689 38.1735 42.1443 39.8031Z" fill="black"/>
<path d="M29.9997 18.6978C26.5767 18.6978 23.8018 21.4727 23.8018 24.8958C23.8018 28.3188 26.5767 31.0937 29.9997 31.0937C33.4228 31.0937 36.1977 28.3188 36.1977 24.8958C36.1977 21.4727 33.4228 18.6978 29.9997 18.6978Z" fill="black"/>
<path d="M25.9131 32.7343C24.1045 32.7343 22.4309 33.6914 21.5138 35.2502L20.8709 36.3429C20.1456 37.5759 19.834 39.018 20.1417 40.3142C20.4643 41.6729 21.4508 42.763 23.039 43.143C27.0021 44.0911 32.9974 44.0911 36.9605 43.143C38.5487 42.763 39.5352 41.6729 39.8578 40.3142C40.1655 39.018 39.8539 37.5759 39.1286 36.3429L38.4857 35.2502C37.5686 33.6914 35.895 32.7343 34.0864 32.7343H25.9131Z" fill="black"/>
</svg>
