<svg width="60" height="60" viewBox="0 0 60 60" fill="none" xmlns="http://www.w3.org/2000/svg">
<path d="M0 19.56C0 12.4994 0 8.9691 1.43924 6.30172C2.55101 4.24125 4.24125 2.55101 6.30172 1.43924C8.9691 0 12.4994 0 19.56 0H40.44C47.5006 0 51.0309 0 53.6983 1.43924C55.7588 2.55101 57.449 4.24125 58.5608 6.30172C60 8.9691 60 12.4994 60 19.56V40.44C60 47.5006 60 51.0309 58.5608 53.6983C57.449 55.7588 55.7588 57.449 53.6983 58.5608C51.0309 60 47.5006 60 40.44 60H19.56C12.4994 60 8.9691 60 6.30172 58.5608C4.24125 57.449 2.55101 55.7588 1.43924 53.6983C0 51.0309 0 47.5006 0 40.44V19.56Z" fill="black"/>
<path d="M22.0106 28.6638C22.2412 28.7195 22.4175 28.4762 22.3223 28.2589C21.8712 27.2296 21.6209 26.0923 21.6209 24.8965C21.6209 22.0525 23.0367 19.5392 25.2019 18.023C25.3961 17.887 25.3723 17.5878 25.1465 17.5154C24.5888 17.3367 23.9943 17.2402 23.3772 17.2402C20.1779 17.2402 17.5844 19.8338 17.5844 23.0331C17.5844 25.7616 19.4708 28.0496 22.0106 28.6638Z" fill="white"/>
<path d="M17.5853 40.0564C17.7376 40.087 17.8738 39.9587 17.862 39.8038C17.7374 38.1742 18.2108 36.5624 18.9921 35.2344L19.635 34.1417C20.5324 32.6164 21.9368 31.4944 23.5629 30.9388C23.7748 30.8664 23.849 30.5932 23.7012 30.4249L23.6591 30.3764C23.5439 30.2431 23.378 30.1626 23.2018 30.1626H19.9668C18.0529 30.1626 16.282 31.1755 15.3115 32.825L15.2083 33.0003C14.4371 34.3112 14.1156 35.8356 14.4612 37.19C14.8244 38.6128 15.8985 39.7166 17.5853 40.0564Z" fill="white"/>
<path d="M37.6841 28.2589C37.5889 28.4762 37.7652 28.7195 37.9958 28.6638C40.5356 28.0496 42.4221 25.7616 42.4221 23.0331C42.4221 19.8338 39.8285 17.2402 36.6292 17.2402C36.0122 17.2402 35.4176 17.3367 34.8599 17.5154C34.6341 17.5878 34.6103 17.887 34.8045 18.023C36.9697 19.5392 38.3855 22.0525 38.3855 24.8965C38.3855 26.0923 38.1352 27.2296 37.6841 28.2589Z" fill="white"/>
<path d="M42.1444 39.8038C42.1326 39.9587 42.2689 40.087 42.4211 40.0564C44.1079 39.7166 45.1821 38.6128 45.5452 37.19C45.8909 35.8356 45.5693 34.3112 44.7981 33.0003L44.6949 32.825C43.7245 31.1755 41.9535 30.1626 40.0396 30.1626H36.8046C36.6284 30.1626 36.4626 30.2431 36.3473 30.3764L36.3052 30.4249C36.1574 30.5932 36.2316 30.8664 36.4436 30.9388C38.0697 31.4944 39.474 32.6164 40.3714 34.1417L41.0143 35.2344C41.7956 36.5624 42.2691 38.1742 42.1444 39.8038Z" fill="white"/>
<path d="M29.9999 18.6986C26.5769 18.6986 23.802 21.4735 23.802 24.8965C23.802 28.3195 26.5769 31.0944 29.9999 31.0944C33.4229 31.0944 36.1978 28.3195 36.1978 24.8965C36.1978 21.4735 33.4229 18.6986 29.9999 18.6986Z" fill="white"/>
<path d="M25.9132 32.735C24.1046 32.735 22.4311 33.6921 21.5139 35.251L20.8711 36.3437C20.1457 37.5766 19.8341 39.0188 20.1418 40.3149C20.4644 41.6736 21.451 42.7637 23.0392 43.1437C27.0022 44.0919 32.9976 44.0919 36.9606 43.1437C38.5488 42.7637 39.5354 41.6736 39.8579 40.3149C40.1657 39.0188 39.8541 37.5766 39.1287 36.3437L38.4858 35.251C37.5687 33.6921 35.8951 32.735 34.0865 32.735H25.9132Z" fill="white"/>
</svg>
