<svg width="20" height="20" viewBox="0 0 20 20" fill="none" xmlns="http://www.w3.org/2000/svg">
<path d="M0 9.15657H1.47899V7.67758H0V9.15657ZM3.87104 8.74787H5.69641V6.85946H3.87104V8.74787ZM1.51088 5.69496H2.92683V4.27901H1.51088V5.69496ZM11.0051 2.96306C9.14425 4.27176 7.64062 6.16598 7.05874 8.39497C6.68917 9.81165 6.69279 11.3095 6.95584 12.745H4.62684V10.5109H1.91958V13.2805H4.0435C4.17321 13.6363 4.27684 13.9986 4.42249 14.3494C5.1022 15.9863 6.3696 17.4697 7.82613 18.4675C7.87975 18.5044 8.34642 18.8153 8.37106 18.7878C8.44425 16.874 8.76672 14.9291 9.30005 13.0914C10.366 9.41961 12.3428 6.48409 15.2175 3.99712L15.7044 3.61886C15.3298 4.10944 14.8943 4.56379 14.5095 5.05148C11.4479 8.93483 9.76527 13.587 9.56672 18.5501C9.55368 18.8834 9.6044 19.2334 9.53629 19.5581C9.53484 19.5914 9.57832 19.5697 9.60295 19.5624C13.3972 18.4037 16.9131 15.8196 18.6059 12.1689C19.9595 9.2486 20.0661 5.77612 19.5342 2.63769C19.3834 1.74928 19.1646 0.872468 18.9458 0C16.1863 0.58696 13.3399 1.32247 11.0059 2.96451" fill="white"/>
</svg>
