<svg width="60" height="60" viewBox="0 0 60 60" fill="none" xmlns="http://www.w3.org/2000/svg">
<path d="M0 19.56C0 12.4994 0 8.9691 1.43924 6.30172C2.55101 4.24125 4.24125 2.55101 6.30172 1.43924C8.9691 0 12.4994 0 19.56 0H40.44C47.5006 0 51.0309 0 53.6983 1.43924C55.7588 2.55101 57.449 4.24125 58.5608 6.30172C60 8.9691 60 12.4994 60 19.56V40.44C60 47.5006 60 51.0309 58.5608 53.6983C57.449 55.7588 55.7588 57.449 53.6983 58.5608C51.0309 60 47.5006 60 40.44 60H19.56C12.4994 60 8.9691 60 6.30172 58.5608C4.24125 57.449 2.55101 55.7588 1.43924 53.6983C0 51.0309 0 47.5006 0 40.44V19.56Z" fill="white"/>
<path d="M33.8814 17.7151C34.2479 17.2349 34.1557 16.5486 33.6755 16.1821C33.1953 15.8156 32.509 15.9078 32.1425 16.388L32.1336 16.3996C31.7672 16.8798 31.8594 17.5662 32.3396 17.9326C32.8198 18.2991 33.5061 18.2069 33.8726 17.7267L33.8814 17.7151Z" fill="black"/>
<path fill-rule="evenodd" clip-rule="evenodd" d="M38.729 16.8256C39.1651 16.7871 39.5822 17.0124 39.789 17.3983L40.1667 18.1026C40.3209 18.3921 40.5873 18.6056 40.9034 18.6931L41.4958 18.8571C41.9357 18.9789 42.2538 19.3611 42.2936 19.8159C42.3334 20.2706 42.0865 20.7023 41.6744 20.8986L41.294 21.0798C40.886 21.2742 40.5754 21.6274 40.4349 22.057L40.2474 22.6302C40.1112 23.0466 39.7396 23.3415 39.3032 23.3797C38.8667 23.4179 38.4496 23.1919 38.2432 22.8055L37.959 22.2736C37.746 21.875 37.3789 21.5811 36.9433 21.4605L36.5372 21.3481C36.0972 21.2263 35.7792 20.8441 35.7394 20.3893C35.6996 19.9345 35.9464 19.5029 36.3586 19.3065L36.7389 19.1253C37.147 18.9309 37.4575 18.5777 37.5981 18.1481L37.7856 17.575C37.9217 17.1589 38.2929 16.864 38.729 16.8256ZM38.9652 20.1071C38.984 20.1228 39.0026 20.1386 39.021 20.1547L39.0426 20.1282C39.024 20.1126 39.0056 20.0967 38.9873 20.0806L38.9652 20.1071Z" fill="black"/>
<path d="M30.8248 20.4714C31.2619 20.4977 31.6411 20.7822 31.7887 21.1944L32.867 24.2053C33.6099 26.297 35.1789 27.9919 37.2072 28.8935L39.4608 29.8955C39.8779 30.0809 40.136 30.5059 40.1082 30.9616C40.0804 31.4172 39.7725 31.8077 39.3359 31.941L37.7189 32.4347C35.1215 33.2277 32.9629 35.0509 31.7465 37.4789L30.6626 39.6423C30.4664 40.034 30.0553 40.2708 29.618 40.2441C29.1808 40.2174 28.8016 39.9324 28.6545 39.5197L27.842 37.2405C26.93 34.6824 25.0093 32.6101 22.5278 31.5069L20.9829 30.8201C20.5657 30.6347 20.3076 30.2096 20.3355 29.754C20.3633 29.2983 20.6712 28.9079 21.1078 28.7746L22.7248 28.2809C25.3221 27.4878 27.4808 25.6647 28.6972 23.2366L29.7811 21.0732C29.9772 20.6818 30.3878 20.445 30.8248 20.4714Z" fill="black"/>
<path d="M23.8804 37.437C24.3333 37.0372 24.3763 36.346 23.9766 35.8931C23.5768 35.4403 22.8856 35.3972 22.4328 35.797L15.2602 42.1285C14.8073 42.5283 14.7643 43.2195 15.164 43.6723C15.5638 44.1252 16.255 44.1682 16.7078 43.7685L23.8804 37.437Z" fill="black"/>
<path fill-rule="evenodd" clip-rule="evenodd" d="M38.0025 36.9737C37.7136 36.6447 37.2563 36.5197 36.8403 36.656C36.4242 36.7922 36.1295 37.1635 36.0911 37.5996L36.0383 38.2003C35.9987 38.6506 35.7762 39.0649 35.4228 39.3467L35.0934 39.6094C34.7364 39.8939 34.5938 40.3703 34.7355 40.8042C34.8773 41.2381 35.2736 41.5384 35.7297 41.5574L36.1507 41.5749C36.6023 41.5937 37.0265 41.7968 37.3242 42.1369L37.7215 42.5906C38.0101 42.9202 38.4675 43.0458 38.884 42.9097C39.3004 42.7737 39.5955 42.4023 39.6339 41.9658L39.6867 41.3651C39.7263 40.9149 39.9488 40.5005 40.3022 40.2188L40.6316 39.9561C40.9886 39.6715 41.1312 39.1952 40.9895 38.7612C40.8477 38.3273 40.4514 38.0271 39.9953 38.0081L39.3812 37.9825C39.0534 37.9689 38.7457 37.8213 38.5298 37.5742L38.0025 36.9737ZM37.8787 39.8324C37.8571 39.821 37.8354 39.8097 37.8136 39.7987L37.8291 39.7679C37.8505 39.7794 37.8721 39.7907 37.8938 39.8018L37.8787 39.8324Z" fill="black"/>
<path d="M20.2315 16.8213C20.8356 16.8213 21.3253 17.311 21.3253 17.9151V18.5401C21.3253 19.1441 20.8356 19.6338 20.2315 19.6338C19.6275 19.6338 19.1378 19.1441 19.1378 18.5401V17.9151C19.1378 17.311 19.6275 16.8213 20.2315 16.8213Z" fill="black"/>
<path d="M21.3253 21.6651C21.3253 21.061 20.8356 20.5713 20.2315 20.5713C19.6275 20.5713 19.1378 21.061 19.1378 21.6651V22.2901C19.1378 22.8941 19.6275 23.3838 20.2315 23.3838C20.8356 23.3838 21.3253 22.8941 21.3253 22.2901V21.6651Z" fill="black"/>
<path d="M23.5128 20.1026C23.5128 20.7066 23.0231 21.1963 22.419 21.1963H21.794C21.19 21.1963 20.7003 20.7066 20.7003 20.1026C20.7003 19.4985 21.19 19.0088 21.794 19.0088H22.419C23.0231 19.0088 23.5128 19.4985 23.5128 20.1026Z" fill="black"/>
<path d="M44.0165 27.8512C44.6205 27.8512 45.1102 27.3616 45.1102 26.7575C45.1102 26.1534 44.6205 25.6637 44.0165 25.6637H43.3915C42.7874 25.6637 42.2977 26.1534 42.2977 26.7575C42.2977 27.3616 42.7874 27.8512 43.3915 27.8512H44.0165Z" fill="black"/>
<path d="M19.7628 20.1026C19.7628 20.7066 19.2731 21.1963 18.669 21.1963H18.044C17.44 21.1963 16.9503 20.7066 16.9503 20.1026C16.9503 19.4985 17.44 19.0088 18.044 19.0088H18.669C19.2731 19.0088 19.7628 19.4985 19.7628 20.1026Z" fill="black"/>
<path d="M43.1252 34.8375C43.6054 35.204 43.6976 35.8903 43.3311 36.3705L43.3223 36.3821C42.9558 36.8623 42.2695 36.9545 41.7893 36.588C41.3091 36.2216 41.2169 35.5352 41.5833 35.055L41.5922 35.0434C41.9587 34.5632 42.645 34.471 43.1252 34.8375Z" fill="black"/>
<path d="M16.8623 27.4211C17.2287 26.9409 17.1365 26.2545 16.6563 25.888C16.1761 25.5216 15.4898 25.6138 15.1233 26.094L15.1145 26.1056C14.748 26.5857 14.8402 27.2721 15.3204 27.6386C15.8006 28.005 16.4869 27.9129 16.8534 27.4327L16.8623 27.4211Z" fill="black"/>
</svg>
