<svg width="60" height="60" viewBox="0 0 60 60" fill="none" xmlns="http://www.w3.org/2000/svg">
<path d="M0 19.56C0 12.4994 0 8.9691 1.43924 6.30172C2.55101 4.24125 4.24125 2.55101 6.30172 1.43924C8.9691 0 12.4994 0 19.56 0H40.44C47.5006 0 51.0309 0 53.6983 1.43924C55.7588 2.55101 57.449 4.24125 58.5608 6.30172C60 8.9691 60 12.4994 60 19.56V40.44C60 47.5006 60 51.0309 58.5608 53.6983C57.449 55.7588 55.7588 57.449 53.6983 58.5608C51.0309 60 47.5006 60 40.44 60H19.56C12.4994 60 8.9691 60 6.30172 58.5608C4.24125 57.449 2.55101 55.7588 1.43924 53.6983C0 51.0309 0 47.5006 0 40.44V19.56Z" fill="black"/>
<path d="M33.8812 17.7144C34.2477 17.2342 34.1555 16.5478 33.6753 16.1814C33.1951 15.8149 32.5087 15.9071 32.1422 16.3873L32.1334 16.3989C31.7669 16.8791 31.8591 17.5654 32.3393 17.9319C32.8195 18.2984 33.5059 18.2062 33.8723 17.726L33.8812 17.7144Z" fill="white"/>
<path fill-rule="evenodd" clip-rule="evenodd" d="M38.7287 16.8248C39.1649 16.7864 39.5819 17.0117 39.7888 17.3975L40.1664 18.1019C40.3207 18.3914 40.587 18.6049 40.9032 18.6924L41.4955 18.8564C41.9355 18.9782 42.2535 19.3604 42.2933 19.8151C42.3331 20.2699 42.0863 20.7015 41.6742 20.8979L41.2938 21.0791C40.8857 21.2735 40.5752 21.6267 40.4347 22.0563L40.2471 22.6294C40.1109 23.0458 39.7394 23.3408 39.3029 23.3789C38.8665 23.4171 38.4494 23.1912 38.2429 22.8048L37.9587 22.2729C37.7457 21.8742 37.3786 21.5803 36.943 21.4598L36.5369 21.3473C36.097 21.2255 35.7789 20.8433 35.7391 20.3886C35.6994 19.9338 35.9462 19.5022 36.3583 19.3058L36.7387 19.1246C37.1468 18.9302 37.4573 18.577 37.5978 18.1474L37.7853 17.5743C37.9215 17.1581 38.2926 16.8633 38.7287 16.8248ZM38.965 20.1063C38.9837 20.122 39.0023 20.1379 39.0208 20.1539L39.0424 20.1275C39.0238 20.1118 39.0053 20.0959 38.9871 20.0799L38.965 20.1063Z" fill="white"/>
<path d="M30.8246 20.4706C31.2616 20.497 31.6408 20.7815 31.7884 21.1936L32.8667 24.2046C33.6096 26.2962 35.1787 27.9911 37.2069 28.8928L39.4606 29.8947C39.8777 30.0802 40.1358 30.5052 40.108 30.9608C40.0801 31.4165 39.7722 31.8069 39.3356 31.9402L37.7186 32.434C35.1213 33.227 32.9627 35.0502 31.7462 37.4782L30.6624 39.6416C30.4661 40.0333 30.0551 40.2701 29.6178 40.2434C29.1805 40.2167 28.8013 39.9316 28.6542 39.519L27.8417 37.2397C26.9298 34.6817 25.0091 32.6094 22.5275 31.5062L20.9826 30.8194C20.5655 30.6339 20.3074 30.2089 20.3352 29.7533C20.3631 29.2976 20.671 28.9072 21.1076 28.7739L22.7246 28.2801C25.3219 27.4871 27.4805 25.6639 28.697 23.2359L29.7808 21.0725C29.9769 20.681 30.3876 20.4443 30.8246 20.4706Z" fill="white"/>
<path d="M23.8802 37.4362C24.3331 37.0365 24.3761 36.3453 23.9763 35.8924C23.5766 35.4396 22.8854 35.3965 22.4325 35.7963L15.2599 42.1278C14.8071 42.5276 14.764 43.2187 15.1638 43.6716C15.5635 44.1245 16.2547 44.1675 16.7076 43.7678L23.8802 37.4362Z" fill="white"/>
<path fill-rule="evenodd" clip-rule="evenodd" d="M38.0022 36.973C37.7133 36.644 37.2561 36.519 36.84 36.6553C36.4239 36.7915 36.1292 37.1627 36.0909 37.5989L36.038 38.1996C35.9984 38.6499 35.776 39.0642 35.4226 39.346L35.0931 39.6086C34.7362 39.8932 34.5935 40.3695 34.7353 40.8035C34.877 41.2374 35.2734 41.5377 35.7295 41.5567L36.1505 41.5742C36.6021 41.593 37.0262 41.7961 37.324 42.1361L37.7212 42.5898C38.0099 42.9194 38.4673 43.045 38.8837 42.909C39.3002 42.7729 39.5953 42.4015 39.6337 41.9651L39.6865 41.3644C39.7261 40.9141 39.9485 40.4998 40.3019 40.218L40.6314 39.9554C40.9883 39.6708 41.131 39.1944 40.9893 38.7605C40.8475 38.3266 40.4512 38.0263 39.9951 38.0073L39.3809 37.9818C39.0532 37.9681 38.7454 37.8205 38.5296 37.5735L38.0022 36.973ZM37.8785 39.8317C37.8569 39.8202 37.8352 39.809 37.8133 39.798L37.8289 39.7672C37.8503 39.7787 37.8719 39.79 37.8935 39.8011L37.8785 39.8317Z" fill="white"/>
<path d="M20.2313 16.8206C20.8353 16.8206 21.325 17.3103 21.325 17.9144V18.5394C21.325 19.1434 20.8353 19.6331 20.2313 19.6331C19.6272 19.6331 19.1375 19.1434 19.1375 18.5394V17.9144C19.1375 17.3103 19.6272 16.8206 20.2313 16.8206Z" fill="white"/>
<path d="M21.325 21.6643C21.325 21.0603 20.8353 20.5706 20.2313 20.5706C19.6272 20.5706 19.1375 21.0603 19.1375 21.6643V22.2894C19.1375 22.8934 19.6272 23.3831 20.2313 23.3831C20.8353 23.3831 21.325 22.8934 21.325 22.2894V21.6643Z" fill="white"/>
<path d="M23.5125 20.1019C23.5125 20.7059 23.0228 21.1956 22.4188 21.1956H21.7938C21.1897 21.1956 20.7 20.7059 20.7 20.1019C20.7 19.4978 21.1897 19.0081 21.7938 19.0081H22.4188C23.0228 19.0081 23.5125 19.4978 23.5125 20.1019Z" fill="white"/>
<path d="M44.0162 27.8505C44.6203 27.8505 45.11 27.3608 45.11 26.7568C45.11 26.1527 44.6203 25.663 44.0162 25.663H43.3912C42.7872 25.663 42.2975 26.1527 42.2975 26.7568C42.2975 27.3608 42.7872 27.8505 43.3912 27.8505H44.0162Z" fill="white"/>
<path d="M19.7625 20.1019C19.7625 20.7059 19.2729 21.1956 18.6688 21.1956H18.0438C17.4397 21.1956 16.95 20.7059 16.95 20.1019C16.95 19.4978 17.4397 19.0081 18.0438 19.0081H18.6688C19.2729 19.0081 19.7625 19.4978 19.7625 20.1019Z" fill="white"/>
<path d="M43.125 34.8368C43.6052 35.2032 43.6974 35.8896 43.3309 36.3698L43.3221 36.3814C42.9556 36.8616 42.2692 36.9538 41.789 36.5873C41.3088 36.2208 41.2166 35.5345 41.5831 35.0543L41.5919 35.0427C41.9584 34.5625 42.6448 34.4703 43.125 34.8368Z" fill="white"/>
<path d="M16.862 27.4203C17.2285 26.9401 17.1363 26.2538 16.6561 25.8873C16.1759 25.5208 15.4895 25.613 15.1231 26.0932L15.1142 26.1048C14.7478 26.585 14.8399 27.2714 15.3201 27.6378C15.8003 28.0043 16.4867 27.9121 16.8532 27.4319L16.862 27.4203Z" fill="white"/>
</svg>
