<svg width="60" height="60" viewBox="0 0 60 60" fill="none" xmlns="http://www.w3.org/2000/svg">
<path d="M0 19.56C0 12.4994 0 8.9691 1.43924 6.30172C2.55101 4.24125 4.24125 2.55101 6.30172 1.43924C8.9691 0 12.4994 0 19.56 0H40.44C47.5006 0 51.0309 0 53.6983 1.43924C55.7588 2.55101 57.449 4.24125 58.5608 6.30172C60 8.9691 60 12.4994 60 19.56V40.44C60 47.5006 60 51.0309 58.5608 53.6983C57.449 55.7588 55.7588 57.449 53.6983 58.5608C51.0309 60 47.5006 60 40.44 60H19.56C12.4994 60 8.9691 60 6.30172 58.5608C4.24125 57.449 2.55101 55.7588 1.43924 53.6983C0 51.0309 0 47.5006 0 40.44V19.56Z" fill="white"/>
<path d="M33.2561 15.3398C32.1892 14.5015 30.7101 14.8474 30.0074 15.8689C27.0951 20.1023 21.4708 23.7904 17.6244 25.2179C16.2024 25.7456 15.4786 27.68 16.6528 28.961L23.8212 36.7811C24.3738 37.3839 25.2396 37.6506 26.0632 37.3851C30.081 36.09 38.0206 32.3615 43.1762 25.873C43.9378 24.9144 43.7207 23.562 42.8051 22.8426L33.2561 15.3398Z" fill="black"/>
<path d="M18.4813 33.1148L21.4266 39.4728C21.7705 40.2152 22.5156 40.7321 23.3813 40.7281C27.4838 40.7091 35.8971 39.5964 42.567 35.1307C43.5855 34.4488 43.7881 33.0932 43.134 32.1302L41.5524 29.8019C36.3976 34.7402 30.0135 37.6437 26.5098 38.7731C25.1117 39.2238 23.6599 38.7643 22.7453 37.7665L18.4813 33.1148Z" fill="black"/>
<path d="M20.2968 42.4535L19.2902 38.3299L20.1036 40.0857C20.6728 41.3145 21.9184 42.193 23.3882 42.1862C27.3807 42.1678 35.3086 41.1652 42.0502 37.1783L43.0137 39.4427C43.4695 40.5139 43.0088 41.8048 41.8777 42.2771C34.4708 45.3702 26.0009 44.8366 21.9721 44.0627C21.1219 43.8994 20.4908 43.2483 20.2968 42.4535Z" fill="black"/>
</svg>
