<svg width="60" height="60" viewBox="0 0 60 60" fill="none" xmlns="http://www.w3.org/2000/svg">
<path d="M0 19.56C0 12.4994 0 8.9691 1.43924 6.30172C2.55101 4.24125 4.24125 2.55101 6.30172 1.43924C8.9691 0 12.4994 0 19.56 0H40.44C47.5006 0 51.0309 0 53.6983 1.43924C55.7588 2.55101 57.449 4.24125 58.5608 6.30172C60 8.9691 60 12.4994 60 19.56V40.44C60 47.5006 60 51.0309 58.5608 53.6983C57.449 55.7588 55.7588 57.449 53.6983 58.5608C51.0309 60 47.5006 60 40.44 60H19.56C12.4994 60 8.9691 60 6.30172 58.5608C4.24125 57.449 2.55101 55.7588 1.43924 53.6983C0 51.0309 0 47.5006 0 40.44V19.56Z" fill="black"/>
<path d="M33.2562 15.3398C32.1893 14.5015 30.7102 14.8474 30.0075 15.8689C27.0952 20.1023 21.4709 23.7904 17.6246 25.2179C16.2026 25.7456 15.4787 27.68 16.6529 28.961L23.8213 36.7811C24.3739 37.3839 25.2398 37.6506 26.0633 37.3851C30.0811 36.09 38.0207 32.3615 43.1763 25.873C43.938 24.9144 43.7209 23.562 42.8052 22.8426L33.2562 15.3398Z" fill="white"/>
<path d="M18.4814 33.1148L21.4268 39.4728C21.7707 40.2152 22.5157 40.7321 23.3814 40.7281C27.4839 40.7091 35.8972 39.5964 42.5671 35.1307C43.5857 34.4488 43.7883 33.0932 43.1341 32.1302L41.5525 29.8019C36.3977 34.7402 30.0136 37.6437 26.5099 38.7731C25.1119 39.2238 23.66 38.7643 22.7454 37.7665L18.4814 33.1148Z" fill="white"/>
<path d="M20.2969 42.4535L19.2903 38.3299L20.1037 40.0857C20.6729 41.3145 21.9185 42.193 23.3883 42.1862C27.3808 42.1678 35.3087 41.1652 42.0503 37.1783L43.0138 39.4427C43.4696 40.5139 43.0089 41.8048 41.8778 42.2771C34.4709 45.3702 26.0011 44.8366 21.9722 44.0627C21.122 43.8994 20.4909 43.2483 20.2969 42.4535Z" fill="white"/>
</svg>
