<svg width="219" height="41" viewBox="0 0 219 41" fill="none" xmlns="http://www.w3.org/2000/svg">
<g clip-path="url(#clip0_443_13640)">
<path d="M54.2578 32.5407V13.5857H59.2245L59.3219 16.4206C59.9442 15.6041 60.8055 14.8832 61.901 14.2549C62.9982 13.6266 64.3509 13.3125 65.9608 13.3125C67.8689 13.3125 69.3328 13.912 70.3523 15.1094C71.3718 16.3068 71.8815 18.0065 71.8815 20.207V32.5392H66.7216V20.8672C66.7216 20.1812 66.6273 19.5787 66.4386 19.0612C66.2499 18.5437 65.9456 18.1416 65.5241 17.8563C65.1026 17.5725 64.5533 17.4298 63.8792 17.4298C62.8795 17.4298 62.0228 17.6696 61.3091 18.1492C60.5955 18.6287 59.9655 19.2115 59.4208 19.8974V32.5407H54.2609H54.2578ZM79.2022 32.5407V20.8687C79.2022 20.1828 79.1078 19.5803 78.9207 19.0628C78.732 18.5453 78.4277 18.1431 78.0046 17.8578C77.5831 17.574 77.0338 17.4313 76.3597 17.4313C75.36 17.4313 74.5003 17.6514 73.7805 18.0915C73.0593 18.5316 72.4141 19.081 71.8435 19.7427L71.2211 16.5572C72.0383 15.6906 73.041 14.9333 74.2294 14.2853C75.4178 13.6388 76.8162 13.314 78.4261 13.314C80.3206 13.314 81.7844 13.9135 82.8176 15.1109C83.8493 16.3083 84.3651 18.008 84.3651 20.2086V32.5407H79.2052H79.2022Z" fill="white"/>
<path d="M89.1591 39.4913V35.3163H90.8725C91.6379 35.3163 92.277 35.1797 92.7897 34.9081C93.3025 34.6364 93.6753 34.1887 93.9097 33.568L94.3373 32.539L86.9375 13.584H92.3119L97.1219 27.6053L101.405 13.584H106.625L99.7893 32.539L99.0894 34.4224C98.5964 35.7549 98.0242 36.7914 97.376 37.5305C96.7263 38.2681 95.932 38.7795 94.9901 39.0648C94.0482 39.3501 92.8765 39.4928 91.475 39.4928H89.1576L89.1591 39.4913Z" fill="white"/>
<path d="M110.082 32.5407V13.5857H115.047L115.145 16.4206C115.781 15.6041 116.618 14.8832 117.657 14.2549C118.695 13.6266 120.044 13.3125 121.707 13.3125C123.641 13.3125 125.142 13.8998 126.205 15.0699C127.269 16.2415 127.802 17.9549 127.802 20.207V32.5392H122.68V20.8672C122.68 20.1812 122.582 19.5787 122.388 19.0612C122.193 18.5437 121.884 18.1416 121.462 17.8563C121.041 17.5725 120.486 17.4298 119.798 17.4298C118.772 17.4298 117.893 17.6696 117.159 18.1492C116.426 18.6287 115.787 19.2115 115.242 19.8974V32.5407H110.082Z" fill="white"/>
<path d="M141.763 32.5386C139.841 32.5386 138.351 32.3094 137.294 31.8496C136.235 31.3898 135.5 30.678 135.083 29.7128C134.668 28.7476 134.459 27.4895 134.459 25.9354V17.546H131.305V13.5851H134.459V9.11719H139.619V13.5851H143.767V17.546H139.619V25.6258C139.619 26.6229 139.757 27.3605 140.037 27.8401C140.316 28.3181 140.95 28.5579 141.936 28.5579H143.767V32.5386H141.761H141.763Z" fill="white"/>
<path d="M155.2 32.5394C153.654 32.5394 152.473 32.2966 151.656 31.811C150.838 31.3253 150.281 30.6257 149.983 29.7136C149.684 28.8 149.535 27.7028 149.535 26.4219V6.39844H152.767V26.2656C152.767 27.4433 152.919 28.3432 153.225 28.9654C153.531 29.5861 154.26 29.8973 155.416 29.8973H156.293V32.5379H155.202L155.2 32.5394Z" fill="white"/>
<path d="M165.826 32.8885C164.736 32.8885 163.74 32.6806 162.837 32.2678C161.935 31.8535 161.214 31.2418 160.675 30.4314C160.137 29.6225 159.867 28.6224 159.867 27.4311C159.867 25.7359 160.4 24.4475 161.463 23.5673C162.527 22.687 164.033 22.0876 165.981 21.7704C167.929 21.4532 170.207 21.2817 172.816 21.2559V19.9356C172.816 18.3178 172.415 17.2069 171.61 16.6044C170.805 16.0019 169.785 15.7014 168.553 15.7014C167.241 15.7014 166.138 16.0308 165.242 16.6924C164.345 17.3526 163.898 18.3952 163.898 19.8187H160.742C160.742 18.2647 161.077 17.0096 161.745 16.0505C162.413 15.0929 163.335 14.3932 164.511 13.9531C165.686 13.513 167.033 13.293 168.551 13.293C169.525 13.293 170.456 13.384 171.345 13.5646C172.234 13.7452 173.032 14.0761 173.74 14.5556C174.448 15.0337 175.009 15.7045 175.425 16.565C175.84 17.4254 176.047 18.5363 176.047 19.8961V32.5394H173.01L172.873 29.665C172.002 30.6363 170.993 31.4164 169.845 32.0052C168.696 32.594 167.355 32.8885 165.823 32.8885M166.683 30.4026C167.981 30.4026 169.149 30.0976 170.187 29.489C171.225 28.8804 172.095 28.111 172.797 27.1777V23.332C169.342 23.3715 166.867 23.6947 165.368 24.3033C163.869 24.9119 163.119 25.9089 163.119 27.2945C163.119 28.24 163.42 28.9943 164.024 29.5573C164.628 30.1203 165.514 30.4026 166.683 30.4026Z" fill="white"/>
<path d="M191.414 32.8885C190.011 32.8885 188.818 32.6199 187.83 32.0826C186.844 31.5454 186.039 30.8048 185.415 29.8578L185.24 32.5379H182.203V6.39844H185.455V16.653C186.117 15.6559 186.984 14.847 188.055 14.2248C189.127 13.6041 190.382 13.293 191.823 13.293C193.367 13.293 194.705 13.6587 195.834 14.3902C196.963 15.1217 197.837 16.2129 198.453 17.6622C199.069 19.1131 199.378 20.919 199.378 23.0801C199.378 25.2412 199.049 27.032 198.395 28.4889C197.739 29.9458 196.814 31.0431 195.619 31.7806C194.425 32.5182 193.024 32.8885 191.414 32.8885ZM190.81 30.2281C192.523 30.2281 193.821 29.6104 194.703 28.3736C195.586 27.1367 196.027 25.3854 196.027 23.1196C196.027 20.8538 195.615 19.0023 194.79 17.7593C193.965 16.5164 192.748 15.8942 191.14 15.8942C189.776 15.8942 188.624 16.2569 187.684 16.9823C186.742 17.7077 186 18.588 185.453 19.623V26.906C185.96 27.8652 186.654 28.6574 187.537 29.2857C188.419 29.9139 189.51 30.2281 190.808 30.2281" fill="white"/>
<path d="M211.461 32.888C210.396 32.888 209.387 32.7712 208.433 32.539C207.479 32.3053 206.639 31.9365 205.911 31.4311C205.184 30.9258 204.616 30.2626 204.207 29.44C203.798 28.6175 203.594 27.6249 203.594 26.4579H206.728C206.728 27.9345 207.185 28.9726 208.101 29.5751C209.015 30.1776 210.161 30.4781 211.538 30.4781C212.771 30.4781 213.787 30.2413 214.586 29.7693C215.385 29.2973 215.784 28.5173 215.784 27.4292C215.784 26.4973 215.423 25.8038 214.703 25.3515C213.984 24.8978 212.713 24.4577 210.896 24.0312C209.416 23.6822 208.169 23.277 207.157 22.8171C206.146 22.3573 205.385 21.7745 204.88 21.0688C204.373 20.3631 204.12 19.4738 204.12 18.3978C204.12 17.5555 204.298 16.8149 204.656 16.1745C205.013 15.5341 205.513 14.9999 206.155 14.5719C206.797 14.1439 207.553 13.8237 208.423 13.6112C209.292 13.3972 210.234 13.291 211.248 13.291C212.261 13.291 213.185 13.4079 214.061 13.6401C214.938 13.8738 215.711 14.235 216.379 14.7282C217.047 15.2199 217.576 15.8543 217.966 16.6313C218.355 17.4083 218.55 18.3401 218.55 19.4283H215.396C215.396 18.0821 214.992 17.1306 214.187 16.5736C213.383 16.0167 212.403 15.7389 211.248 15.7389C210.093 15.7389 209.131 15.9468 208.405 16.3612C207.678 16.7755 207.314 17.4235 207.314 18.3022C207.314 18.8076 207.477 19.2355 207.801 19.5846C208.125 19.9336 208.67 20.2478 209.437 20.527C210.202 20.8063 211.235 21.0992 212.533 21.4103C213.949 21.7472 215.135 22.1478 216.097 22.6138C217.057 23.0797 217.782 23.6791 218.269 24.4106C218.755 25.1421 218.999 26.077 218.999 27.2167C218.999 28.2016 218.807 29.053 218.424 29.7708C218.04 30.4902 217.509 31.079 216.828 31.5389C216.146 31.9987 215.347 32.3387 214.432 32.5587C213.516 32.7788 212.527 32.8895 211.464 32.8895" fill="white"/>
<path d="M0 19.1669H3.10568V16.0694H0V19.1669ZM8.12864 18.3109H11.9617V14.356H8.12864V18.3109ZM3.17263 11.9172H6.14593V8.95178H3.17263V11.9172ZM23.1093 6.19578C19.2017 8.9366 16.0442 12.9037 14.8224 17.5719C14.0463 20.5388 14.0539 23.6757 14.6063 26.6821H9.71572V22.0033H4.03084V27.8036H8.49079C8.76316 28.5488 8.98076 29.3076 9.28661 30.0421C10.7139 33.4704 13.3753 36.577 16.4338 38.6668C16.5464 38.7442 17.5263 39.3952 17.5781 39.3376C17.7318 35.3295 18.4089 31.2562 19.5288 27.4075C21.7672 19.7178 25.9182 13.5699 31.9546 8.36142L32.9771 7.56922C32.1904 8.59665 31.2759 9.5482 30.4679 10.5696C24.039 18.7025 20.5057 28.4456 20.0888 38.8398C20.0614 39.5379 20.1679 40.2709 20.0249 40.9508C20.0218 41.0206 20.1131 40.9751 20.1649 40.9599C28.1322 38.5332 35.5152 33.1214 39.0698 25.4756C41.9122 19.3596 42.1359 12.0872 41.019 5.51437C40.7025 3.65377 40.243 1.81745 39.7835 -0.00976562C33.989 1.21951 28.012 2.75989 23.1108 6.19881" fill="white"/>
</g>
<defs>
<clipPath id="clip0_443_13640">
<rect width="219" height="41" fill="white"/>
</clipPath>
</defs>
</svg>
