<svg width="35" height="35" viewBox="0 0 35 35" fill="none" xmlns="http://www.w3.org/2000/svg">
<g clip-path="url(#clip0_443_10325)">
<g clip-path="url(#clip1_443_10325)">
<path d="M13.1722 8.69747L9.46355 12.3954C8.7824 13.0738 8.15643 13.6984 7.6624 14.2611C7.32849 14.6338 7.02677 15.0342 6.76047 15.4579L6.72413 15.4215L6.58682 15.2855C5.94169 14.6596 5.18333 14.1621 4.3522 13.8196L4.17317 13.7482L3.62124 13.5288C3.44888 13.4611 3.2961 13.3516 3.1767 13.21C3.05731 13.0685 2.97505 12.8994 2.93738 12.7181C2.8997 12.5368 2.90779 12.349 2.96091 12.1716C3.01403 11.9942 3.11051 11.8328 3.24163 11.7021C4.87586 10.0732 6.8372 8.11862 7.78355 7.72555C8.60605 7.38047 9.50678 7.26509 10.3897 7.3917C11.1866 7.51016 11.9405 7.91939 13.1722 8.69747ZM19.5045 28.1655C19.8034 28.4698 20.0026 28.6838 20.1816 28.9127C20.4186 29.2142 20.6299 29.5359 20.8143 29.8725C21.0216 30.2507 21.1832 30.6546 21.5062 31.465C21.7687 32.1232 22.641 32.2969 23.1486 31.7921L23.2697 31.6709C24.9039 30.0421 26.8639 28.0861 27.2584 27.1425C27.6044 26.3231 27.7203 25.4248 27.5936 24.5444C27.4751 23.7488 27.0645 22.9963 26.2851 21.7713L22.563 25.48C21.8657 26.1746 21.2276 26.8127 20.6487 27.3107C20.2912 27.6263 19.9085 27.9122 19.5045 28.1655Z" fill="#272123"/>
<path fill-rule="evenodd" clip-rule="evenodd" d="M21.0664 23.8824L29.5943 15.3814C30.822 14.1577 31.4359 13.5452 31.7589 12.7672C32.082 11.9891 32.082 11.1235 32.082 9.39102V8.56448C32.082 5.90178 32.082 4.57044 31.2528 3.7439C30.4236 2.91602 29.0882 2.91602 26.4174 2.91602H25.5882C23.8516 2.91602 22.9834 2.91602 22.2026 3.23909C21.4218 3.56217 20.808 4.17332 19.5803 5.39832L11.0511 13.8993C9.61606 15.3302 8.7276 16.2174 8.38298 17.0735C8.27394 17.3441 8.21875 17.612 8.21875 17.892C8.21875 19.0631 9.16375 20.0041 11.0511 21.886L11.3055 22.1391L14.2778 19.1224C14.4837 18.9275 14.7573 18.8201 15.0408 18.8229C15.3244 18.8257 15.5958 18.9384 15.7978 19.1374C15.9999 19.3363 16.1169 19.6059 16.1241 19.8893C16.1313 20.1728 16.0283 20.448 15.8366 20.657L12.8549 23.6831L13.0541 23.8824C14.9428 25.7656 15.8864 26.7066 17.0603 26.7066C17.3187 26.7066 17.5678 26.6608 17.8168 26.5693C18.6959 26.2462 19.5938 25.3497 21.0651 23.8837L21.0664 23.8824ZM25.0726 13.8993C23.9661 15.0031 22.173 15.0031 21.0664 13.8993C20.8036 13.6375 20.595 13.3264 20.4527 12.9838C20.3104 12.6412 20.2371 12.2739 20.2371 11.9029C20.2371 11.532 20.3104 11.1647 20.4527 10.8221C20.595 10.4795 20.8036 10.1684 21.0664 9.90659C21.5985 9.37687 22.3187 9.07947 23.0695 9.07947C23.8203 9.07947 24.5405 9.37687 25.0726 9.90659C25.3356 10.1683 25.5443 10.4794 25.6867 10.822C25.8292 11.1646 25.9025 11.5319 25.9025 11.9029C25.9025 12.274 25.8292 12.6413 25.6867 12.9839C25.5443 13.3265 25.3356 13.6376 25.0726 13.8993Z" fill="#272123"/>
</g>
</g>
<defs>
<clipPath id="clip0_443_10325">
<rect width="35" height="35" fill="white"/>
</clipPath>
<clipPath id="clip1_443_10325">
<rect width="35" height="35" fill="white"/>
</clipPath>
</defs>
</svg>
