<svg width="60" height="60" viewBox="0 0 60 60" fill="none" xmlns="http://www.w3.org/2000/svg">
<path d="M0 19.56C0 12.4994 0 8.9691 1.43924 6.30172C2.55101 4.24125 4.24125 2.55101 6.30172 1.43924C8.9691 0 12.4994 0 19.56 0H40.44C47.5006 0 51.0309 0 53.6983 1.43924C55.7588 2.55101 57.449 4.24125 58.5608 6.30172C60 8.9691 60 12.4994 60 19.56V40.44C60 47.5006 60 51.0309 58.5608 53.6983C57.449 55.7588 55.7588 57.449 53.6983 58.5608C51.0309 60 47.5006 60 40.44 60H19.56C12.4994 60 8.9691 60 6.30172 58.5608C4.24125 57.449 2.55101 55.7588 1.43924 53.6983C0 51.0309 0 47.5006 0 40.44V19.56Z" fill="black"/>
<path fill-rule="evenodd" clip-rule="evenodd" d="M22.1456 16.6656C26.0299 14.3351 29.1715 14.3223 30 14.3223C30.8285 14.3223 33.9701 14.3351 37.8544 16.6656C39.6215 17.7259 41.0392 18.082 42.264 18.0555C43.2336 18.0345 44.2188 18.78 44.2188 19.9208V29.9993C44.2188 30.3527 44.1844 31.0394 44.0697 31.4953C43.1716 35.0642 40.5398 41.9799 30.3679 45.6127C30.13 45.6977 29.87 45.6977 29.6321 45.6127C19.4602 41.9799 16.8284 35.0642 15.9303 31.4953C15.8156 31.0394 15.7812 30.3527 15.7812 29.9993V19.9208C15.7812 18.78 16.7664 18.0345 17.736 18.0555C18.9608 18.082 20.3785 17.7259 22.1456 16.6656ZM35.9171 26.356C36.3212 25.907 36.2848 25.2155 35.8358 24.8114C35.3869 24.4073 34.6953 24.4437 34.2912 24.8927L28.0419 31.8363L25.7133 29.2166C25.312 28.7651 24.6207 28.7245 24.1692 29.1258C23.7177 29.5271 23.677 30.2184 24.0784 30.6699L26.7333 33.6567C27.4258 34.4358 28.6419 34.4396 29.3393 33.6648L35.9171 26.356Z" fill="white"/>
</svg>
