<svg width="60" height="60" viewBox="0 0 60 60" fill="none" xmlns="http://www.w3.org/2000/svg">
<path d="M0 19.56C0 12.4994 0 8.9691 1.43924 6.30172C2.55101 4.24125 4.24125 2.55101 6.30172 1.43924C8.9691 0 12.4994 0 19.56 0H40.44C47.5006 0 51.0309 0 53.6983 1.43924C55.7588 2.55101 57.449 4.24125 58.5608 6.30172C60 8.9691 60 12.4994 60 19.56V40.44C60 47.5006 60 51.0309 58.5608 53.6983C57.449 55.7588 55.7588 57.449 53.6983 58.5608C51.0309 60 47.5006 60 40.44 60H19.56C12.4994 60 8.9691 60 6.30172 58.5608C4.24125 57.449 2.55101 55.7588 1.43924 53.6983C0 51.0309 0 47.5006 0 40.44V19.56Z" fill="white"/>
<path fill-rule="evenodd" clip-rule="evenodd" d="M22.1456 16.6664C26.0299 14.3358 29.1715 14.323 30 14.323C30.8285 14.323 33.9701 14.3358 37.8544 16.6664C39.6215 17.7266 41.0392 18.0827 42.264 18.0562C43.2336 18.0352 44.2188 18.7807 44.2188 19.9216V30.0001C44.2188 30.3534 44.1844 31.0402 44.0697 31.4961C43.1716 35.0649 40.5398 41.9806 30.3679 45.6134C30.13 45.6984 29.87 45.6984 29.6321 45.6134C19.4602 41.9806 16.8284 35.0649 15.9303 31.4961C15.8156 31.0402 15.7812 30.3534 15.7812 30.0001V19.9216C15.7812 18.7807 16.7664 18.0352 17.736 18.0562C18.9608 18.0827 20.3785 17.7266 22.1456 16.6664ZM35.9171 26.3568C36.3212 25.9078 36.2848 25.2162 35.8358 24.8121C35.3869 24.408 34.6953 24.4444 34.2912 24.8934L28.0419 31.837L25.7133 29.2173C25.312 28.7659 24.6207 28.7252 24.1692 29.1265C23.7177 29.5278 23.677 30.2192 24.0784 30.6706L26.7333 33.6575C27.4258 34.4366 28.6419 34.4403 29.3393 33.6655L35.9171 26.3568Z" fill="black"/>
</svg>
