<?xml version="1.0" encoding="UTF-8"?>
<svg id="Layer_2" data-name="Layer 2" xmlns="http://www.w3.org/2000/svg" viewBox="0 0 694.44 685.54">
  <defs>
    <style>
      .cls-1 {
        fill: #e0dfdb;
      }
    </style>
  </defs>
  <g id="Layer_1-2" data-name="Layer 1">
    <path class="cls-1" d="M0,320.7h51.79v-51.79H0v51.79ZM135.56,306.37h63.91v-66.12h-63.91v66.12ZM52.9,199.48h49.59v-49.59h-49.59v49.59ZM385.36,103.8c-65.16,45.84-117.82,112.15-138.2,190.21-12.95,49.6-12.82,102.07-3.61,152.32h-81.55v-78.24h-94.77v96.98h74.38c4.54,12.47,8.16,25.14,13.26,37.43,23.8,57.33,68.18,109.26,119.19,144.2,1.87,1.28,18.22,12.18,19.07,11.22,2.55-67.01,13.85-135.13,32.52-199.46,37.32-128.58,106.54-231.36,207.21-318.46l17.05-13.24c-13.12,17.19-28.38,33.08-41.84,50.16-107.2,135.99-166.13,298.89-173.1,472.7-.47,11.67,1.32,23.92-1.07,35.3-.05,1.17,1.47.41,2.34.14,132.87-40.58,255.99-131.07,315.26-258.91,47.4-102.26,51.14-223.87,32.52-333.76-5.28-31.12-12.95-61.81-20.61-92.38-96.63,20.54-196.3,46.3-278.04,103.8"/>
  </g>
</svg>